<?xml version="1.0" ?><!DOCTYPE svg  PUBLIC '-//W3C//DTD SVG 1.1//EN'  'http://www.w3.org/Graphics/SVG/1.1/DTD/svg11.dtd'><svg enable-background="new 0 0 64 64" id="Layer_1" version="1.1" viewBox="0 0 64 64" xml:space="preserve" xmlns="http://www.w3.org/2000/svg" xmlns:xlink="http://www.w3.org/1999/xlink"><path d="M40.79,48.006L38.045,48c-4.211-0.011-11.638-0.031-14.906,0.005h-0.001c-3.714,0-7.569-2.149-7.58-6.133  c-0.012-4.054-0.1-7.414-0.194-10.971c-0.041-1.562-0.083-3.179-0.123-4.936c-0.135-6.167,2.16-9.435,6.82-9.711  c2.673-0.159,7.138-0.262,11.375-0.262c3.556,0,9.752,0.072,11.285,0.553c2.223,0.698,3.522,2.49,3.864,5.328  c0.313,2.599,0.14,11.879,0.046,16.864c-0.026,1.407-0.046,2.458-0.046,2.892C48.585,45.444,45.452,48.006,40.79,48.006z   M29.098,45.985c3.121,0,6.557,0.009,8.952,0.015l2.74,0.006c3.521,0,5.795-1.717,5.795-4.375c0-0.438,0.02-1.503,0.046-2.93  c0.087-4.585,0.266-14.126-0.032-16.587c-0.322-2.684-1.568-3.374-2.478-3.659c-0.678-0.213-3.883-0.461-10.686-0.461  c-4.202,0-8.62,0.101-11.257,0.258c-3.527,0.209-5.05,2.575-4.938,7.671c0.038,1.753,0.081,3.368,0.122,4.927  c0.094,3.569,0.183,6.94,0.195,11.018c0.008,3.037,3.287,4.139,5.489,4.139C24.532,45.991,26.723,45.985,29.098,45.985z"/><path d="M35.659,40.666c-0.306,0-0.607-0.14-0.804-0.404c-0.685-0.921-1.39-1.823-2.095-2.725l-0.501-0.642  c-0.786-1.007-1.486-2.001-2.163-2.962c-0.594-0.844-1.19-1.69-1.851-2.557c-0.622-0.815-1.198-1.246-1.713-1.282  c-0.945-0.076-2.131,1.114-3.392,2.364c-0.24,0.238-0.484,0.479-0.733,0.72l-0.99,0.961c-0.667,0.65-1.319,1.285-2.017,1.937  l-0.572,0.528c-0.488,0.447-0.949,0.869-1.388,1.334c-0.379,0.403-1.013,0.42-1.414,0.042c-0.402-0.379-0.42-1.012-0.042-1.414  c0.49-0.519,1-0.986,1.493-1.437l0.558-0.514c0.687-0.643,1.33-1.268,1.987-1.909l0.997-0.967c0.243-0.234,0.48-0.47,0.714-0.701  c1.591-1.577,3.093-3.065,4.938-2.938c1.13,0.078,2.165,0.753,3.164,2.064c0.677,0.888,1.288,1.754,1.896,2.619  c0.693,0.985,1.348,1.915,2.104,2.884l0.5,0.64c0.716,0.916,1.432,1.83,2.125,2.765c0.329,0.443,0.237,1.07-0.207,1.399  C36.075,40.602,35.866,40.666,35.659,40.666z"/><path d="M47.187,39.364c-0.238,0-0.477-0.084-0.667-0.255c-0.917-0.822-2.791-2.406-4.296-3.68l-1.479-1.254  c-1.659-1.418-3.186-0.316-5.774,2.524l-0.544,0.592c-0.376,0.404-1.01,0.426-1.413,0.049c-0.404-0.377-0.426-1.01-0.05-1.414  l0.528-0.575c1.917-2.103,5.123-5.622,8.552-2.699l1.473,1.249c1.515,1.282,3.4,2.877,4.338,3.718c0.412,0.369,0.446,1,0.078,1.412  C47.734,39.251,47.462,39.364,47.187,39.364z"/><path d="M35.338,28.792c-1.714,0-3.244-1.25-3.72-3.04c-0.448-1.681,0.197-3.303,1.643-4.131c1.409-0.807,3.426-0.825,4.721-0.004  c1.407,0.891,2.064,2.703,1.564,4.308c-0.51,1.631-2.195,2.81-4.1,2.867C35.437,28.791,35.348,28.792,35.338,28.792z M35.692,22.992  c-0.51,0-1.033,0.133-1.438,0.364c-0.944,0.541-0.808,1.496-0.704,1.881c0.199,0.749,0.844,1.555,1.787,1.555l0.05,0  c0.898-0.027,1.96-0.538,2.248-1.463c0.236-0.756-0.068-1.607-0.725-2.022C36.592,23.104,36.159,22.992,35.692,22.992z"/></svg>