<svg viewBox="0 0 64 64" xml:space="preserve" xmlns="http://www.w3.org/2000/svg"><path d="M14.367 29.066a1 1 0 0 1-.642-1.767c2.545-2.133 5.261-4.543 7.888-6.874 1.677-1.488 3.355-2.978 5.009-4.415.345-.3.662-.58.955-.839 3.709-3.278 4.542-3.5 9.089.267 2.963 2.455 6.442 5.377 9.783 8.443.509.468 1.028.91 1.541 1.347.794.677 1.615 1.377 2.359 2.137a1.002 1.002 0 0 1-.015 1.415 1.002 1.002 0 0 1-1.415-.015c-.681-.696-1.432-1.336-2.228-2.015-.531-.453-1.068-.911-1.595-1.395-3.308-3.035-6.763-5.938-9.707-8.376-3.527-2.922-3.528-2.924-6.489-.309a132.7 132.7 0 0 1-.968.85c-1.648 1.432-3.322 2.917-4.994 4.4-2.637 2.34-5.364 4.76-7.93 6.911a.99.99 0 0 1-.641.235z"/><path d="M31.51 51.268c-5.618 0-11.446-1.075-13.066-4.022-3.013-5.482-.421-22.703-.309-23.433a1 1 0 1 1 1.977.303c-1.059 6.921-1.911 18.535.085 22.167 2.153 3.917 17.467 3.468 21.286 1.515 2.095-1.072 2.644-3.653 2.736-5.629.196-4.224.176-7.599.149-11.872a827.473 827.473 0 0 1-.021-5.818 1 1 0 0 1 2 0c-.001 2.176.011 4.07.021 5.805.026 4.303.047 7.701-.151 11.978-.117 2.505-.875 5.809-3.823 7.317-1.928.984-6.337 1.689-10.884 1.689z"/><path d="m32.105 37.484-.208-.004c-1.229-.049-2.982-.538-3.957-1.375-.821-.707-1.826-1.695-2.306-3.083-.709-2.052-.429-4.124.79-5.834 1.332-1.871 3.597-3.033 5.909-3.033 2.1 0 3.945.953 5.195 2.682 1.424 1.972 1.624 4.863.474 6.874-1.072 1.877-3.312 3.773-5.897 3.773zm.229-11.33c-1.651 0-3.332.861-4.28 2.193-.589.827-1.159 2.196-.528 4.021.323.935 1.088 1.678 1.719 2.22.563.484 1.893.86 2.733.894l.128.002c1.773 0 3.4-1.435 4.162-2.767.767-1.341.613-3.366-.358-4.71-1.108-1.531-2.556-1.853-3.576-1.853z"/></svg>