<svg viewBox="0 0 64 64" xml:space="preserve" xmlns="http://www.w3.org/2000/svg"><path d="M32.181 50.304c-3.797 0-7.927-1.011-11.333-2.774-4.075-2.11-6.857-6.466-7.632-11.951-.943-6.685 1.168-13.581 5.38-17.568 3.459-3.274 7.809-3.986 11.212-4.242 4.367-.325 8.581.446 12.395 2.273 4.933 2.364 8.193 7.489 8.724 13.71.579 6.802-2.188 13.426-7.05 16.874-2.232 1.583-5.528 2.922-8.396 3.409a19.687 19.687 0 0 1-3.3.269zm-.434-34.608c-.591 0-1.193.023-1.789.067-4.565.343-7.646 1.483-9.987 3.7-3.698 3.501-5.617 9.866-4.774 15.836.683 4.836 3.078 8.646 6.571 10.455 4.055 2.099 9.266 3.006 13.376 2.31 2.596-.441 5.569-1.646 7.576-3.069 4.295-3.046 6.733-8.963 6.213-15.073-.476-5.589-3.244-9.991-7.595-12.076-2.978-1.427-6.204-2.15-9.591-2.15z"/><path d="M39.417 33.949c-5.346 0-7.741-.573-8.439-1.829-1.573-2.83-1.002-14.404-.7-17.426a1.001 1.001 0 0 1 1.991.198c-.514 5.146-.549 14.445.458 16.256.53.583 3.622 1.168 15.243.493a119.7 119.7 0 0 1 1.615-.088c.504-.021 1.019.402 1.043.955a1 1 0 0 1-.955 1.043c-.388.017-.931.049-1.587.087-3.507.204-6.362.311-8.669.311z"/></svg>